<?xml version="1.0" encoding="UTF-8" standalone="no"?><!DOCTYPE svg PUBLIC "-//W3C//DTD SVG 1.1//EN" "http://www.w3.org/Graphics/SVG/1.1/DTD/svg11.dtd"><svg width="100%" height="100%" viewBox="0 0 1000 1000" version="1.1" xmlns="http://www.w3.org/2000/svg" xmlns:xlink="http://www.w3.org/1999/xlink" xml:space="preserve" xmlns:serif="http://www.serif.com/" style="fill-rule:evenodd;clip-rule:evenodd;stroke-linejoin:round;stroke-miterlimit:2;"><path d="M1000,350l0,300c0,193.17 -156.83,350 -350,350l-300,0c-193.17,0 -350,-156.83 -350,-350l0,-300c0,-193.17 156.83,-350 350,-350l300,0c193.17,0 350,156.83 350,350Z" style="fill:#9fe870;"/><path d="M370.669,362.247c47.161,-39.702 110.804,-73.99 187.079,-73.99c76.275,0 139.918,34.288 187.079,73.99c47.041,39.702 80.486,87.103 97.45,120.068c5.654,11.068 5.654,24.182 0,35.25c-16.963,32.964 -50.409,80.366 -97.45,120.068c-47.161,39.822 -110.684,73.99 -187.079,73.99c-76.396,0 -139.918,-34.288 -187.079,-73.99c-19.49,-16.482 -36.694,-34.288 -51.372,-51.853l-107.916,62.921c-15.039,8.782 -34.168,6.376 -46.559,-5.895c-12.392,-12.271 -14.918,-31.28 -6.376,-46.439l55.221,-96.367l-55.101,-96.367c-8.662,-15.159 -6.015,-34.168 6.376,-46.439c12.392,-12.271 31.4,-14.678 46.559,-5.895l107.916,62.921c14.678,-17.565 31.882,-35.371 51.372,-51.853l-0.12,-0.12Zm321.824,137.753c0,-21.295 -17.204,-38.499 -38.499,-38.499c-21.295,0 -38.499,17.204 -38.499,38.499c0,21.295 17.204,38.499 38.499,38.499c21.295,0 38.499,-17.204 38.499,-38.499Z" style="fill:#163300;fill-rule:nonzero;"/><path d="M370.669,362.247c47.161,-39.702 110.804,-73.99 187.079,-73.99c76.275,0 139.918,34.288 187.079,73.99c47.041,39.702 80.486,87.103 97.45,120.068c5.654,11.068 5.654,24.182 0,35.25c-16.963,32.964 -50.409,80.366 -97.45,120.068c-47.161,39.822 -110.684,73.99 -187.079,73.99c-76.396,0 -139.918,-34.288 -187.079,-73.99c-19.49,-16.482 -36.694,-34.288 -51.372,-51.853l-107.916,62.921c-15.039,8.782 -34.168,6.376 -46.559,-5.895c-12.392,-12.271 -14.918,-31.28 -6.376,-46.439l55.221,-96.367l-55.101,-96.367c-8.662,-15.159 -6.015,-34.168 6.376,-46.439c12.392,-12.271 31.4,-14.678 46.559,-5.895l107.916,62.921c14.678,-17.565 31.882,-35.371 51.372,-51.853l-0.12,-0.12Zm321.824,137.753c0,-21.295 -17.204,-38.499 -38.499,-38.499c-21.295,0 -38.499,17.204 -38.499,38.499c0,21.295 17.204,38.499 38.499,38.499c21.295,0 38.499,-17.204 38.499,-38.499Z" style="fill:#163300;fill-rule:nonzero;"/></svg>