<?xml version="1.0" encoding="UTF-8" standalone="no"?><!DOCTYPE svg PUBLIC "-//W3C//DTD SVG 1.1//EN" "http://www.w3.org/Graphics/SVG/1.1/DTD/svg11.dtd"><svg width="100%" height="100%" viewBox="0 0 1000 1000" version="1.1" xmlns="http://www.w3.org/2000/svg" xmlns:xlink="http://www.w3.org/1999/xlink" xml:space="preserve" xmlns:serif="http://www.serif.com/" style="fill-rule:evenodd;clip-rule:evenodd;stroke-linejoin:round;stroke-miterlimit:2;"><rect x="-0" y="-0" width="1000" height="1000" style="fill:#9fe870;"/><path d="M375,150c-27.656,0 -50,22.344 -50,50l0,400l-37.5,0c-20.781,0 -37.5,16.719 -37.5,37.5c0,20.781 16.719,37.5 37.5,37.5l37.5,0l0,125c0,27.656 22.344,50 50,50c27.656,0 50,-22.344 50,-50l0,-125l137.5,0c20.781,0 37.5,-16.719 37.5,-37.5c0,-20.781 -16.719,-37.5 -37.5,-37.5l-137.5,0l0,-100l225,0c27.656,0 50,-22.344 50,-50c0,-27.656 -22.344,-50 -50,-50l-225,0l0,-150l275,0c27.656,0 50,-22.344 50,-50c0,-27.656 -22.344,-50 -50,-50l-325,0Z" style="fill:#163300;fill-rule:nonzero;"/></svg>