<?xml version="1.0" encoding="UTF-8" standalone="no"?><!DOCTYPE svg PUBLIC "-//W3C//DTD SVG 1.1//EN" "http://www.w3.org/Graphics/SVG/1.1/DTD/svg11.dtd"><svg width="100%" height="100%" viewBox="0 0 1000 1000" version="1.1" xmlns="http://www.w3.org/2000/svg" xmlns:xlink="http://www.w3.org/1999/xlink" xml:space="preserve" xmlns:serif="http://www.serif.com/" style="fill-rule:evenodd;clip-rule:evenodd;stroke-linejoin:round;stroke-miterlimit:2;"><rect x="0" y="-0" width="1000" height="1000" style="fill:#9fe870;"/><path d="M394.962,388.122c38.302,-32.244 89.991,-60.092 151.939,-60.092c61.948,0 113.637,27.847 151.939,60.092c38.205,32.244 65.368,70.742 79.145,97.515c4.592,8.989 4.592,19.64 0,28.629c-13.777,26.773 -40.941,65.27 -79.145,97.515c-38.302,32.342 -89.893,60.092 -151.939,60.092c-62.046,0 -113.637,-27.847 -151.939,-60.092c-15.829,-13.386 -29.802,-27.847 -41.722,-42.113l-87.646,51.102c-12.214,7.133 -27.75,5.179 -37.814,-4.788c-10.064,-9.966 -12.116,-25.405 -5.179,-37.716l44.849,-78.266l-44.751,-78.266c-7.035,-12.311 -4.886,-27.75 5.179,-37.716c10.064,-9.966 25.502,-11.921 37.814,-4.788l87.646,51.102c11.921,-14.266 25.893,-28.727 41.722,-42.113l-0.098,-0.098Zm261.374,111.878c0,-17.295 -13.973,-31.267 -31.267,-31.267c-17.295,0 -31.267,13.973 -31.267,31.267c0,17.295 13.973,31.267 31.267,31.267c17.295,0 31.267,-13.973 31.267,-31.267Z" style="fill:#163300;fill-rule:nonzero;"/></svg>